<svg
        xmlns="http://www.w3.org/2000/svg"
        xmlnsXlink="http://www.w3.org/1999/xlink"
        width='200'
        height='200'
        viewBox="0 0 3000 3000"
    >
        <path
            fillRule="nonzero"
            fill="#c9f31d"
            fillOpacity={1}
            d="M 1475.820312 253.5 L 1475.660156 253.511719 C 1475.640625 253.511719 1475.628906 253.511719 1475.609375 253.511719 C 1473.441406 253.5 1471.238281 257.019531 1469.019531 264.050781 C 1460.511719 297 1453.488281 319.589844 1447.960938 331.839844 C 1442.128906 345.949219 1433.070312 364.03125 1420.808594 386.101562 L 1410.011719 404.609375 C 1410.378906 382.839844 1408.398438 371.949219 1404.078125 371.941406 C 1403.898438 371.941406 1403.710938 371.960938 1403.53125 372 C 1389.351562 414.550781 1367.050781 457.691406 1336.621094 501.410156 C 1325.859375 515.53125 1315.429688 528.109375 1305.328125 539.140625 C 1307.339844 533.179688 1304.878906 524.449219 1297.941406 512.941406 C 1293.519531 505.289062 1290.109375 501.460938 1287.710938 501.460938 C 1286.640625 501.460938 1285.769531 502.230469 1285.101562 503.769531 C 1275.769531 543.769531 1268.378906 569 1262.949219 579.46875 C 1261.128906 585.488281 1239.148438 617 1197 674 C 1180.820312 701.121094 1168.828125 725.058594 1161.019531 745.808594 C 1156.109375 756.671875 1152.070312 770.699219 1148.898438 787.878906 C 1146.578125 805.078125 1146.128906 819.191406 1147.550781 830.199219 L 1145.398438 844.769531 C 1175.128906 793.761719 1196.101562 760.890625 1208.320312 746.140625 C 1211.628906 740.238281 1267.5 679.371094 1375.929688 563.53125 C 1397.21875 537.691406 1414.488281 512.160156 1427.730469 486.949219 C 1445.25 453.949219 1458.109375 419 1466.308594 382.089844 C 1471.011719 361.878906 1474.339844 338.921875 1476.320312 313.230469 L 1478.5 260.871094 C 1478.660156 256.539062 1477.761719 254.078125 1475.820312 253.5 Z M 1652.449219 253.730469 C 1650.511719 254.300781 1649.609375 256.75 1649.75 261.089844 L 1651.808594 313.449219 C 1653.71875 339.148438 1657 362.109375 1661.640625 382.339844 C 1669.75 419.269531 1682.519531 454.25 1699.949219 487.300781 C 1713.128906 512.539062 1730.339844 538.109375 1751.558594 564.011719 C 1859.699219 680.121094 1915.421875 741.128906 1918.710938 747.039062 C 1930.890625 761.820312 1951.78125 794.738281 1981.378906 845.820312 L 1979.269531 831.25 C 1980.71875 820.25 1980.300781 806.140625 1978.019531 788.929688 C 1974.890625 771.738281 1970.890625 757.699219 1966 746.820312 C 1958.25 726.058594 1946.320312 702.089844 1930.210938 674.929688 C 1888.210938 617.820312 1866.308594 586.25 1864.5 580.230469 C 1859.089844 569.75 1851.769531 544.5 1842.539062 504.46875 C 1841.878906 502.929688 1841.011719 502.160156 1839.929688 502.160156 C 1837.539062 502.160156 1834.121094 505.96875 1829.671875 513.609375 C 1822.71875 525.101562 1820.230469 533.828125 1822.21875 539.800781 C 1812.148438 528.738281 1801.75 516.140625 1791.03125 501.988281 C 1760.710938 458.179688 1738.519531 414.988281 1724.449219 372.410156 C 1724.261719 372.371094 1724.070312 372.351562 1723.890625 372.351562 C 1719.570312 372.339844 1717.570312 383.230469 1717.878906 405 L 1707.128906 386.460938 C 1694.921875 364.371094 1685.921875 346.261719 1680.121094 332.140625 C 1674.621094 319.871094 1667.660156 297.261719 1659.230469 264.289062 C 1657.019531 257.25 1654.839844 253.730469 1652.671875 253.730469 C 1652.648438 253.730469 1652.628906 253.730469 1652.621094 253.730469 Z M 1562.980469 1169.648438 Z M 1563.339844 886.308594 C 1561.558594 887.820312 1559.820312 889.449219 1558.101562 891.199219 C 1543.769531 905.828125 1531.351562 929 1520.820312 960.699219 C 1520.800781 960.699219 1520.789062 960.699219 1520.769531 960.699219 C 1519.210938 960.699219 1517.410156 953.53125 1515.359375 939.199219 C 1505.589844 975.308594 1500.519531 1000 1500.160156 1013.28125 L 1500.328125 1034.71875 C 1500.570312 1040.269531 1501.019531 1045.691406 1501.679688 1050.980469 C 1502.339844 1056.28125 1503.210938 1061.449219 1504.289062 1066.5 C 1504.570312 1069.140625 1506.679688 1076.480469 1510.609375 1088.511719 C 1510.578125 1088.789062 1510.480469 1088.929688 1510.320312 1088.929688 C 1510.03125 1088.929688 1509.539062 1088.5 1508.839844 1087.660156 L 1500.671875 1076.839844 L 1500.660156 1076.839844 C 1503.050781 1086.03125 1505.429688 1093.871094 1507.789062 1100.359375 C 1511.039062 1109.429688 1514.878906 1116.808594 1519.308594 1122.519531 C 1521.171875 1125.621094 1531.988281 1137.609375 1551.761719 1158.511719 C 1555.878906 1163.558594 1558.96875 1168.121094 1561.03125 1172.210938 C 1561.699219 1171.371094 1562.339844 1170.519531 1562.96875 1169.648438 L 1562.980469 1169.648438 C 1563.609375 1170.519531 1564.25 1171.378906 1564.921875 1172.21875 C 1566.988281 1168.128906 1570.089844 1163.570312 1574.21875 1158.539062 C 1594.050781 1137.691406 1604.898438 1125.71875 1606.769531 1122.628906 C 1611.210938 1116.929688 1615.070312 1109.558594 1618.339844 1100.5 C 1620.71875 1094.019531 1623.121094 1086.191406 1625.53125 1077.011719 L 1617.328125 1087.800781 C 1616.628906 1088.640625 1616.128906 1089.058594 1615.839844 1089.058594 C 1615.679688 1089.058594 1615.578125 1088.921875 1615.558594 1088.640625 C 1619.519531 1076.621094 1621.640625 1069.289062 1621.921875 1066.648438 C 1623.019531 1061.609375 1623.910156 1056.429688 1624.578125 1051.140625 C 1625.25 1045.839844 1625.71875 1040.429688 1625.96875 1034.878906 L 1626.191406 1013.441406 C 1625.871094 1000.160156 1620.859375 975.460938 1611.179688 939.320312 C 1609.089844 953.648438 1607.269531 960.808594 1605.710938 960.808594 C 1605.699219 960.808594 1605.691406 960.808594 1605.671875 960.808594 C 1595.21875 929.078125 1582.851562 905.878906 1568.558594 891.210938 C 1566.851562 889.449219 1565.109375 887.820312 1563.339844 886.308594 Z M 1563.820312 507.410156 C 1562.46875 509.988281 1561.160156 512.460938 1559.890625 514.820312 C 1559.890625 514.828125 1559.878906 514.828125 1559.878906 514.839844 C 1551.601562 530.160156 1544.691406 540.929688 1539.160156 547.148438 C 1441.058594 643.460938 1382.820312 711.070312 1364.429688 749.949219 C 1363.421875 751 1362.460938 751.53125 1361.53125 751.519531 C 1360.828125 751.519531 1360.160156 751.230469 1359.511719 750.628906 C 1357.589844 737.960938 1355.519531 731.628906 1353.300781 731.621094 C 1352.96875 731.621094 1352.628906 731.769531 1352.300781 732.039062 C 1339.320312 751.710938 1324.578125 785.191406 1308.070312 832.5 C 1299.878906 868.179688 1295.328125 903.808594 1294.421875 939.410156 C 1293.570312 940.859375 1292.601562 941.578125 1291.5 941.578125 C 1290.941406 941.578125 1290.339844 941.378906 1289.710938 940.988281 L 1275.601562 926.808594 L 1275.589844 926.808594 C 1281.570312 963.859375 1286.789062 988.589844 1291.25 1001.019531 C 1298 1019.789062 1306.179688 1035.609375 1315.769531 1048.488281 C 1324.710938 1060.320312 1330.421875 1067.390625 1332.878906 1069.691406 C 1369.378906 1102.039062 1408.050781 1138.460938 1448.890625 1178.949219 C 1469.828125 1201.378906 1479.730469 1212.738281 1478.601562 1213.03125 C 1491.140625 1234.300781 1499.308594 1251.988281 1503.101562 1266.109375 C 1508.230469 1286.519531 1510.648438 1298.910156 1510.359375 1303.289062 C 1511.140625 1311.75 1511.378906 1320.320312 1511.058594 1329.019531 C 1517.070312 1307.011719 1520.101562 1286.261719 1520.140625 1266.75 C 1519.671875 1240.730469 1518.710938 1224.878906 1517.269531 1219.199219 C 1515.789062 1208.328125 1513.738281 1197.269531 1511.140625 1186 C 1507.519531 1171.851562 1503.578125 1158.671875 1499.300781 1146.46875 C 1488.03125 1117.671875 1480.859375 1101.558594 1477.808594 1098.140625 C 1467.25 1079.578125 1455.359375 1064.921875 1442.140625 1054.148438 L 1475.558594 1053.71875 C 1477.839844 1053.101562 1476.589844 1047.558594 1471.800781 1037.089844 C 1459.800781 1007.910156 1440.820312 975.910156 1414.871094 941.089844 C 1423.089844 936.910156 1432.511719 934.839844 1443.128906 934.851562 C 1454.621094 934.859375 1467.511719 937.320312 1481.800781 942.230469 L 1479.390625 927.660156 C 1478.460938 918.070312 1478.910156 908.738281 1480.730469 899.660156 C 1482.550781 890.578125 1485.738281 881.75 1490.300781 873.179688 C 1499.421875 856.050781 1514.03125 839.929688 1534.121094 824.820312 C 1544.699219 821.320312 1554.460938 819.210938 1563.421875 818.5 L 1563.429688 818.5 C 1572.378906 819.230469 1582.140625 821.371094 1592.710938 824.890625 C 1612.769531 840.050781 1627.328125 856.210938 1636.410156 873.371094 C 1640.949219 881.949219 1644.121094 890.78125 1645.910156 899.871094 C 1647.710938 908.949219 1648.128906 918.28125 1647.179688 927.871094 L 1644.730469 942.441406 C 1659.039062 937.570312 1671.929688 935.140625 1683.421875 935.148438 C 1694.039062 935.171875 1703.460938 937.269531 1711.671875 941.460938 C 1685.628906 976.21875 1666.570312 1008.171875 1654.5 1037.320312 C 1649.671875 1047.78125 1648.410156 1053.320312 1650.691406 1053.941406 L 1684.109375 1054.460938 C 1670.859375 1065.191406 1658.941406 1079.820312 1648.328125 1098.359375 C 1645.269531 1101.769531 1638.058594 1117.859375 1626.710938 1146.628906 C 1622.410156 1158.820312 1618.429688 1171.988281 1614.78125 1186.128906 C 1612.140625 1197.390625 1610.070312 1208.449219 1608.558594 1219.320312 C 1607.109375 1225 1606.109375 1240.839844 1605.570312 1266.859375 C 1605.558594 1286.359375 1608.539062 1307.128906 1614.488281 1329.148438 C 1614.199219 1320.449219 1614.460938 1311.871094 1615.269531 1303.429688 C 1614.980469 1299.050781 1617.429688 1286.660156 1622.621094 1266.261719 C 1626.441406 1252.148438 1634.660156 1234.480469 1647.25 1213.238281 C 1646.121094 1212.949219 1656.050781 1201.621094 1677.050781 1179.238281 C 1717.988281 1138.851562 1756.75 1102.53125 1793.328125 1070.269531 C 1795.800781 1067.980469 1801.519531 1060.921875 1810.488281 1049.121094 C 1820.121094 1036.261719 1828.328125 1020.460938 1835.128906 1001.710938 C 1839.628906 989.289062 1844.910156 964.570312 1850.980469 927.550781 L 1850.96875 927.550781 L 1836.820312 941.679688 C 1836.191406 942.070312 1835.589844 942.269531 1835.03125 942.269531 C 1833.941406 942.269531 1832.96875 941.539062 1832.121094 940.089844 C 1831.300781 904.488281 1826.839844 868.839844 1818.730469 833.148438 C 1802.351562 785.800781 1787.691406 752.28125 1774.769531 732.578125 C 1774.429688 732.300781 1774.101562 732.160156 1773.769531 732.160156 C 1771.550781 732.160156 1769.460938 738.480469 1767.511719 751.148438 C 1766.859375 751.738281 1766.179688 752.039062 1765.480469 752.03125 C 1764.558594 752.03125 1763.589844 751.511719 1762.589844 750.460938 C 1744.289062 711.519531 1686.21875 643.769531 1588.378906 547.210938 C 1582.859375 540.980469 1575.96875 530.179688 1567.71875 514.820312 C 1566.449219 512.460938 1565.148438 509.988281 1563.820312 507.410156 Z M 1302.378906 742.429688 L 1283.230469 755.011719 C 1234 788.539062 1199.460938 821.96875 1179.640625 855.289062 C 1167.550781 876.128906 1157.070312 899.371094 1148.210938 925 C 1145.488281 930.660156 1139.75 951.230469 1130.988281 986.710938 C 1127.769531 1001.328125 1124.941406 1016.539062 1122.53125 1032.351562 C 1113.570312 1022.21875 1106.351562 1010.230469 1100.859375 996.371094 C 1095.769531 987.019531 1091.628906 966.769531 1088.441406 935.628906 C 1088.109375 935.058594 1087.699219 934.78125 1087.230469 934.78125 C 1086.621094 934.78125 1085.890625 935.261719 1085.039062 936.21875 C 1076.949219 955.539062 1077.679688 985.359375 1087.230469 1025.691406 C 1101.75 1079.460938 1136.671875 1136.691406 1192.011719 1197.378906 C 1192.011719 1197.71875 1191.820312 1197.890625 1191.449219 1197.890625 C 1187.980469 1197.890625 1168.300781 1183.089844 1132.421875 1153.5 C 1131.460938 1156.070312 1131.078125 1158.980469 1131.28125 1162.238281 C 1130.648438 1163.441406 1132.238281 1169.089844 1136.039062 1179.191406 C 1143.078125 1193.898438 1152.738281 1207.929688 1165.03125 1221.269531 C 1180.808594 1237.339844 1198.910156 1251.371094 1219.351562 1263.371094 C 1250.78125 1279.109375 1300.410156 1301.710938 1368.238281 1331.160156 C 1381 1337.519531 1391.761719 1344.03125 1400.5 1350.691406 C 1418.320312 1364.289062 1432.648438 1378.25 1443.5 1392.570312 C 1447.308594 1396.039062 1453.480469 1406.980469 1462.039062 1425.398438 C 1464.851562 1432.839844 1466.789062 1440.359375 1467.859375 1447.960938 L 1475.480469 1414.910156 L 1475.699219 1399.871094 C 1475.238281 1389.558594 1473.570312 1378.691406 1470.679688 1367.25 C 1467.789062 1355.820312 1463.679688 1343.820312 1458.359375 1331.25 C 1457.210938 1325.679688 1446.488281 1305.558594 1426.191406 1270.898438 C 1414.171875 1250.808594 1400.140625 1232.859375 1384.109375 1217.050781 C 1382.378906 1217.898438 1381.550781 1219.03125 1381.609375 1220.449219 L 1384.199219 1255.929688 C 1384.230469 1256.710938 1384.039062 1257.109375 1383.621094 1257.109375 C 1383.308594 1257.109375 1382.878906 1256.890625 1382.328125 1256.449219 C 1357.839844 1209.820312 1319.191406 1163.148438 1266.371094 1116.429688 C 1265.710938 1116.070312 1265.128906 1115.890625 1264.628906 1115.890625 C 1260.988281 1115.890625 1261.519531 1125.300781 1266.210938 1144.109375 C 1265.789062 1144.320312 1265.351562 1144.429688 1264.878906 1144.429688 C 1263.351562 1144.429688 1261.558594 1143.300781 1259.480469 1141.039062 C 1242.109375 1124.550781 1226.351562 1092.988281 1212.210938 1046.371094 L 1205.210938 1014.460938 L 1202.46875 982.089844 L 1203.988281 949.25 L 1209.75 915.941406 C 1215.019531 893.578125 1223.109375 870.910156 1234.050781 847.929688 L 1252.570312 813.230469 C 1266.339844 789.941406 1282.941406 766.339844 1302.378906 742.429688 Z M 1824.660156 743.101562 C 1844.039062 767.058594 1860.578125 790.691406 1874.289062 814.019531 L 1892.71875 848.769531 C 1903.601562 871.769531 1911.640625 894.460938 1916.839844 916.839844 L 1922.53125 950.160156 L 1923.960938 983 L 1921.140625 1015.371094 L 1914.058594 1047.261719 C 1899.800781 1093.839844 1883.960938 1125.359375 1866.550781 1141.808594 C 1864.46875 1144.058594 1862.671875 1145.191406 1861.140625 1145.179688 C 1860.671875 1145.179688 1860.230469 1145.078125 1859.808594 1144.859375 C 1864.550781 1126.070312 1865.101562 1116.660156 1861.46875 1116.648438 L 1861.460938 1116.648438 C 1860.960938 1116.648438 1860.378906 1116.828125 1859.71875 1117.179688 C 1806.78125 1163.769531 1768.011719 1210.339844 1743.410156 1256.910156 C 1742.859375 1257.339844 1742.421875 1257.558594 1742.109375 1257.558594 C 1741.699219 1257.558594 1741.511719 1257.171875 1741.539062 1256.371094 L 1744.210938 1220.910156 C 1744.28125 1219.488281 1743.449219 1218.359375 1741.71875 1217.5 C 1725.660156 1233.269531 1711.578125 1251.179688 1699.511719 1271.25 C 1679.121094 1305.851562 1668.351562 1325.941406 1667.191406 1331.519531 C 1661.839844 1344.070312 1657.699219 1356.058594 1654.78125 1367.488281 C 1651.859375 1378.921875 1650.160156 1389.789062 1649.671875 1400.089844 L 1649.859375 1415.128906 L 1657.390625 1448.210938 C 1658.480469 1440.601562 1660.441406 1433.078125 1663.269531 1425.660156 C 1671.878906 1407.261719 1678.078125 1396.328125 1681.890625 1392.871094 C 1692.78125 1378.578125 1707.140625 1364.660156 1725 1351.101562 C 1733.761719 1344.460938 1744.53125 1337.980469 1757.308594 1331.648438 C 1825.21875 1302.371094 1874.898438 1279.898438 1906.371094 1264.238281 C 1926.839844 1252.289062 1944.980469 1238.308594 1960.789062 1222.28125 C 1973.121094 1208.960938 1982.820312 1194.960938 1989.890625 1180.269531 C 1993.71875 1170.179688 1995.320312 1164.539062 1994.699219 1163.328125 C 1994.898438 1160.078125 1994.53125 1157.160156 1993.578125 1154.589844 C 1957.621094 1184.089844 1937.910156 1198.839844 1934.429688 1198.828125 C 1934.058594 1198.828125 1933.878906 1198.660156 1933.878906 1198.320312 C 1989.371094 1137.769531 2024.441406 1080.628906 2039.089844 1026.898438 C 2048.738281 986.589844 2049.539062 956.769531 2041.5 937.429688 C 2040.660156 936.46875 2039.929688 935.980469 2039.320312 935.980469 C 2038.851562 935.980469 2038.441406 936.269531 2038.109375 936.828125 C 2034.839844 967.96875 2030.640625 988.199219 2025.53125 997.539062 C 2020.011719 1011.390625 2012.761719 1023.359375 2003.769531 1033.460938 C 2001.390625 1017.648438 1998.621094 1002.429688 1995.429688 987.808594 C 1986.761719 952.308594 1981.070312 931.71875 1978.371094 926.050781 C 1969.570312 900.398438 1959.148438 877.128906 1947.109375 856.261719 C 1927.371094 822.890625 1892.929688 789.371094 1843.769531 755.710938 L 1824.671875 743.101562 Z M 997.417969 1032.679688 L 997.152344 1032.738281 C 980.65625 1081.289062 986.019531 1146.5 1013.25 1228.351562 C 1012.929688 1228.761719 1012.480469 1228.960938 1011.898438 1228.960938 C 1010.050781 1228.960938 1006.859375 1226.851562 1002.328125 1222.628906 C 993.484375 1214.261719 979.648438 1197.519531 960.816406 1172.421875 C 960.304688 1171.828125 959.878906 1171.53125 959.539062 1171.53125 C 958.894531 1171.53125 958.554688 1172.578125 958.515625 1174.691406 C 957.449219 1206.570312 983.046875 1252.058594 1035.300781 1311.179688 C 1035.019531 1311.460938 1034.578125 1311.609375 1033.988281 1311.609375 C 1028 1311.601562 1006.058594 1296.988281 968.199219 1267.789062 C 967.199219 1267.871094 966.777344 1268.5 966.9375 1269.671875 C 968.339844 1273.558594 969.875 1276.550781 971.542969 1278.640625 L 998.824219 1313.679688 C 1025.5 1344.730469 1073.519531 1376.460938 1142.871094 1408.871094 C 1125.480469 1405.519531 1105.070312 1399.300781 1081.628906 1390.199219 C 1082.828125 1398.898438 1100.75 1413.988281 1135.378906 1435.449219 C 1156.789062 1444.960938 1175.699219 1451.640625 1192.109375 1455.488281 C 1254.660156 1466.679688 1302.429688 1476.089844 1335.421875 1483.730469 C 1379.578125 1497.25 1407.910156 1508.070312 1420.410156 1516.191406 C 1442.449219 1530.460938 1457.628906 1544.261719 1465.949219 1557.621094 C 1469.5 1560.671875 1475.230469 1572.558594 1483.121094 1593.269531 C 1485.699219 1601.871094 1487.460938 1610.929688 1488.390625 1620.441406 L 1498.019531 1584.738281 C 1499.71875 1581.160156 1498.53125 1568.378906 1494.449219 1546.410156 C 1487.351562 1519.339844 1470.820312 1489.261719 1444.859375 1456.160156 C 1424.859375 1435.570312 1413.820312 1425.28125 1411.730469 1425.28125 C 1411.691406 1425.28125 1411.660156 1425.28125 1411.640625 1425.289062 C 1409.75 1425.71875 1408.960938 1426.648438 1409.261719 1428.058594 L 1413.179688 1452.230469 C 1405.308594 1434.050781 1376.320312 1403.519531 1326.21875 1360.648438 C 1309.800781 1346.921875 1285.308594 1331.550781 1252.75 1314.53125 C 1251.679688 1314.179688 1250.78125 1314 1250.03125 1314 C 1248.421875 1314 1247.570312 1314.820312 1247.460938 1316.460938 L 1254.371094 1337.488281 C 1254.558594 1338.289062 1254.46875 1338.691406 1254.101562 1338.691406 C 1253.949219 1338.691406 1253.75 1338.621094 1253.511719 1338.488281 C 1237.421875 1320.398438 1224.960938 1307.519531 1216.140625 1299.859375 C 1169.128906 1265.558594 1140.550781 1243.621094 1130.398438 1234.050781 C 1064.570312 1174.421875 1020.25 1107.289062 997.417969 1032.679688 Z M 2128.890625 1034.109375 C 2105.859375 1108.671875 2061.371094 1175.679688 1995.390625 1235.140625 C 1985.21875 1244.679688 1956.578125 1266.550781 1909.488281 1300.738281 C 1900.640625 1308.371094 1888.148438 1321.21875 1872.019531 1339.28125 C 1871.769531 1339.410156 1871.578125 1339.46875 1871.429688 1339.46875 C 1871.058594 1339.46875 1870.96875 1339.070312 1871.160156 1338.269531 L 1878.121094 1317.25 C 1878.019531 1315.609375 1877.171875 1314.789062 1875.558594 1314.789062 C 1874.808594 1314.789062 1873.910156 1314.960938 1872.839844 1315.320312 C 1840.238281 1332.25 1815.710938 1347.558594 1799.25 1361.25 C 1749.050781 1404 1719.980469 1434.449219 1712.058594 1452.609375 L 1716.039062 1428.449219 C 1716.351562 1427.039062 1715.558594 1426.109375 1713.679688 1425.660156 C 1713.640625 1425.660156 1713.609375 1425.660156 1713.578125 1425.660156 C 1711.488281 1425.660156 1700.421875 1435.921875 1680.371094 1456.460938 C 1654.320312 1489.5 1637.71875 1519.539062 1630.558594 1546.578125 C 1626.421875 1568.539062 1625.191406 1581.308594 1626.878906 1584.910156 L 1636.421875 1620.621094 C 1637.378906 1611.121094 1639.160156 1602.070312 1641.761719 1593.46875 C 1649.710938 1572.78125 1655.460938 1560.910156 1659.019531 1557.859375 C 1667.378906 1544.53125 1682.589844 1530.761719 1704.671875 1516.558594 C 1717.191406 1508.460938 1745.550781 1497.710938 1789.738281 1484.308594 C 1822.75 1476.75 1870.550781 1467.460938 1933.121094 1456.429688 C 1949.539062 1452.621094 1968.46875 1445.988281 1989.910156 1436.539062 C 2024.589844 1415.160156 2042.539062 1400.121094 2043.769531 1391.421875 L 2043.761719 1391.421875 C 2020.300781 1400.460938 1999.871094 1406.628906 1982.480469 1409.929688 C 2051.921875 1377.691406 2100.011719 1346.089844 2126.769531 1315.109375 L 2154.140625 1280.128906 C 2155.808594 1278.050781 2157.351562 1275.058594 2158.769531 1271.179688 C 2158.929688 1270 2158.511719 1269.371094 2157.511719 1269.289062 C 2119.570312 1298.398438 2097.601562 1312.949219 2091.609375 1312.941406 C 2091.011719 1312.941406 2090.570312 1312.800781 2090.289062 1312.511719 C 2142.699219 1253.53125 2168.410156 1208.101562 2167.429688 1176.21875 C 2167.390625 1174.109375 2167.058594 1173.058594 2166.410156 1173.058594 C 2166.070312 1173.058594 2165.640625 1173.351562 2165.128906 1173.941406 C 2146.238281 1199 2132.359375 1215.699219 2123.488281 1224.050781 C 2118.949219 1228.261719 2115.761719 1230.359375 2113.898438 1230.359375 C 2113.320312 1230.359375 2112.878906 1230.148438 2112.558594 1229.738281 C 2139.988281 1147.960938 2145.519531 1082.769531 2129.148438 1034.171875 Z M 1025.128906 1349.941406 L 1024.761719 1349.96875 C 1023.769531 1350.148438 1022.929688 1351.050781 1022.238281 1352.671875 L 1025.339844 1380.210938 L 1032.050781 1407.078125 C 1037.730469 1424.769531 1045.828125 1442.011719 1056.339844 1458.808594 C 1066.839844 1475.601562 1079.761719 1491.949219 1095.089844 1507.851562 L 1119.890625 1531.371094 C 1137.640625 1546.820312 1157.789062 1561.828125 1180.359375 1576.390625 C 1162.828125 1570.988281 1131.398438 1555.871094 1086.078125 1531 C 1083.328125 1531.289062 1081.980469 1532.421875 1082.03125 1534.398438 C 1081.289062 1535.410156 1083.53125 1539.21875 1088.78125 1545.828125 C 1097.691406 1555.308594 1107.851562 1564.371094 1119.25 1573.019531 C 1123.390625 1577.859375 1143.289062 1589.921875 1178.929688 1609.199219 C 1209.179688 1624.050781 1244.398438 1637.269531 1284.589844 1648.851562 C 1241.699219 1638.738281 1207.300781 1629.339844 1181.378906 1620.671875 C 1178.058594 1621.210938 1176.429688 1622.5 1176.5 1624.53125 C 1177.800781 1628.609375 1180.550781 1632.320312 1184.75 1635.671875 C 1205.839844 1652.179688 1227.699219 1663.679688 1250.339844 1670.179688 C 1284.179688 1680.449219 1329.191406 1690.179688 1385.390625 1699.390625 C 1398.859375 1702.390625 1413.878906 1707.441406 1430.429688 1714.53125 C 1448.191406 1723.460938 1463.230469 1733.160156 1475.539062 1743.621094 C 1481.679688 1748.859375 1487.148438 1754.289062 1491.941406 1759.910156 C 1502.699219 1774.300781 1508.339844 1783.160156 1508.859375 1786.5 C 1512.21875 1778 1514.671875 1765.878906 1516.21875 1750.148438 L 1516.308594 1729.300781 C 1515.398438 1715.410156 1512.550781 1701.53125 1507.75 1687.671875 L 1499.089844 1666.898438 C 1492.359375 1653.058594 1483.671875 1639.25 1473.039062 1625.441406 C 1462.738281 1611.960938 1449.851562 1597.859375 1434.359375 1583.160156 C 1431.839844 1580.789062 1429.820312 1579.609375 1428.289062 1579.609375 C 1427.140625 1579.609375 1426.269531 1580.269531 1425.679688 1581.621094 L 1427.378906 1610.019531 C 1427.441406 1614.679688 1427.140625 1617 1426.480469 1617 C 1409.660156 1592.671875 1396.621094 1579.441406 1387.339844 1577.320312 C 1329.519531 1563.519531 1292.839844 1553.261719 1277.289062 1546.539062 C 1253.320312 1537.851562 1233.660156 1528.789062 1218.300781 1519.359375 C 1178.898438 1496.820312 1146.058594 1473.609375 1119.789062 1449.730469 C 1106.480469 1438.050781 1092.230469 1424.070312 1077.019531 1407.769531 Z M 2106.289062 1351.308594 L 2054.261719 1409 C 2039 1425.269531 2024.71875 1439.210938 2011.378906 1450.859375 C 1985.050781 1474.671875 1952.148438 1497.800781 1912.691406 1520.230469 C 1897.308594 1529.628906 1877.628906 1538.640625 1853.640625 1547.261719 C 1838.070312 1553.941406 1801.359375 1564.109375 1743.511719 1577.769531 C 1734.21875 1579.871094 1721.140625 1593.058594 1704.261719 1617.351562 C 1703.601562 1617.351562 1703.308594 1615.019531 1703.378906 1610.371094 L 1705.160156 1581.96875 C 1704.570312 1580.628906 1703.699219 1579.949219 1702.550781 1579.949219 C 1701.019531 1579.949219 1699 1581.128906 1696.46875 1583.488281 C 1680.941406 1598.148438 1668.019531 1612.21875 1657.679688 1625.679688 C 1647.019531 1639.449219 1638.300781 1653.25 1631.519531 1667.070312 L 1622.820312 1687.820312 C 1617.988281 1701.660156 1615.101562 1715.53125 1614.148438 1729.421875 L 1614.191406 1750.28125 C 1615.699219 1766.011719 1618.121094 1778.128906 1621.460938 1786.640625 C 1621.980469 1783.300781 1627.640625 1774.449219 1638.441406 1760.089844 C 1643.25 1754.480469 1648.730469 1749.070312 1654.890625 1743.851562 C 1667.21875 1733.410156 1682.28125 1723.75 1700.070312 1714.871094 C 1716.640625 1707.820312 1731.660156 1702.820312 1745.148438 1699.851562 C 1801.371094 1690.78125 1846.410156 1681.160156 1880.269531 1670.980469 C 1902.929688 1664.53125 1924.820312 1653.089844 1945.949219 1636.628906 C 1950.160156 1633.289062 1952.910156 1629.589844 1954.21875 1625.511719 C 1954.300781 1623.480469 1952.679688 1622.191406 1949.359375 1621.640625 C 1923.410156 1630.25 1888.980469 1639.558594 1846.070312 1649.558594 C 1886.289062 1638.078125 1921.550781 1624.949219 1951.839844 1610.179688 C 1987.519531 1590.980469 2007.449219 1578.980469 2011.609375 1574.148438 C 2023.03125 1565.519531 2033.210938 1556.488281 2042.148438 1547.039062 C 2047.410156 1540.441406 2049.671875 1536.628906 2048.921875 1535.621094 C 2048.980469 1533.640625 2047.628906 1532.5 2044.878906 1532.210938 C 1999.5 1556.960938 1968.039062 1572.011719 1950.488281 1577.359375 C 1973.089844 1562.859375 1993.289062 1547.898438 2011.070312 1532.5 L 2035.929688 1509.039062 C 2051.300781 1493.179688 2064.261719 1476.859375 2074.808594 1460.089844 C 2085.359375 1443.328125 2093.5 1426.109375 2099.21875 1408.429688 L 2106.011719 1381.578125 L 2109.179688 1354.039062 C 2108.488281 1352.421875 2107.648438 1351.519531 2106.660156 1351.339844 Z M 1053.339844 1622.261719 L 1053.441406 1631.871094 C 1055.640625 1658.328125 1073.210938 1691.390625 1106.148438 1731.03125 C 1092.691406 1727.589844 1074.039062 1717.410156 1050.199219 1700.46875 C 1049.890625 1700.371094 1049.628906 1700.328125 1049.398438 1700.328125 C 1047.089844 1700.320312 1049.03125 1705.308594 1055.210938 1715.300781 C 1072.210938 1743.011719 1108.570312 1780.371094 1164.269531 1827.371094 C 1140.519531 1818.929688 1111.210938 1804.300781 1076.359375 1783.5 C 1075.5 1783.148438 1074.820312 1782.96875 1074.308594 1782.96875 C 1073.070312 1782.96875 1072.878906 1784.03125 1073.75 1786.140625 C 1075 1789.558594 1084.769531 1800.921875 1103.070312 1820.230469 C 1111.089844 1828.089844 1120.121094 1836.121094 1130.160156 1844.351562 C 1150.230469 1860.808594 1174.320312 1878 1202.441406 1895.941406 L 1155.25 1881.179688 C 1155.019531 1881.128906 1154.820312 1881.101562 1154.671875 1881.101562 C 1153.628906 1881.101562 1154.160156 1882.320312 1156.25 1884.761719 C 1158.851562 1887.378906 1164.820312 1892.210938 1174.160156 1899.25 C 1193.699219 1915.210938 1223.699219 1926.179688 1264.148438 1932.160156 C 1267.261719 1932.308594 1270.621094 1932.390625 1274.230469 1932.398438 C 1301.148438 1932.429688 1342.160156 1928.269531 1397.269531 1919.921875 C 1398.929688 1919.808594 1400.621094 1919.761719 1402.339844 1919.769531 C 1409.160156 1919.769531 1416.378906 1920.640625 1424.011719 1922.351562 C 1440.320312 1925.941406 1453.660156 1931.089844 1464.03125 1937.800781 C 1483.140625 1951.320312 1495.679688 1963.140625 1501.628906 1973.25 L 1512.5 1972.898438 L 1512.46875 1953.660156 C 1509.78125 1902.511719 1486.21875 1852.820312 1441.769531 1804.589844 C 1441.078125 1804.140625 1440.480469 1803.910156 1439.96875 1803.910156 C 1439.230469 1803.910156 1438.710938 1804.390625 1438.378906 1805.351562 L 1438.800781 1825.589844 C 1418.320312 1803.441406 1403.628906 1789.789062 1394.71875 1784.621094 C 1382.878906 1776.21875 1370.980469 1769.839844 1359.019531 1765.480469 C 1345.019531 1760.230469 1336.371094 1757.609375 1333.070312 1757.601562 C 1332.648438 1757.601562 1332.308594 1757.640625 1332.070312 1757.730469 L 1339.921875 1778.910156 C 1292.238281 1766.371094 1255.691406 1754.199219 1230.261719 1742.398438 C 1186.03125 1721.210938 1152.398438 1702.789062 1129.378906 1687.160156 C 1116.359375 1678.609375 1104.5 1670.011719 1093.789062 1661.378906 C 1087 1657.109375 1073.511719 1644.070312 1053.339844 1622.261719 Z M 2071.460938 1623.558594 C 2051.238281 1645.308594 2037.730469 1658.320312 2030.921875 1662.558594 C 2020.191406 1671.171875 2008.300781 1679.730469 1995.269531 1688.25 C 1972.210938 1703.828125 1938.539062 1722.160156 1894.25 1743.238281 C 1868.789062 1754.96875 1832.199219 1767.050781 1784.5 1779.46875 L 1792.398438 1758.308594 C 1792.160156 1758.230469 1791.820312 1758.179688 1791.398438 1758.179688 C 1788.101562 1758.179688 1779.441406 1760.78125 1765.429688 1766 C 1753.449219 1770.320312 1741.539062 1776.679688 1729.679688 1785.050781 C 1720.75 1790.191406 1706.03125 1803.808594 1685.5 1825.898438 L 1685.96875 1805.660156 C 1685.640625 1804.699219 1685.121094 1804.21875 1684.378906 1804.21875 C 1683.878906 1804.21875 1683.269531 1804.441406 1682.578125 1804.890625 C 1638.011719 1853.011719 1614.320312 1902.640625 1611.5 1953.78125 L 1611.429688 1973.03125 L 1622.289062 1973.410156 C 1628.269531 1963.308594 1640.839844 1951.519531 1659.980469 1938.039062 C 1670.371094 1931.359375 1683.71875 1926.25 1700.039062 1922.699219 C 1707.679688 1921 1714.898438 1920.160156 1721.71875 1920.171875 C 1723.441406 1920.171875 1725.128906 1920.230469 1726.789062 1920.339844 C 1781.878906 1928.828125 1822.878906 1933.089844 1849.789062 1933.121094 C 1853.410156 1933.128906 1856.769531 1933.058594 1859.878906 1932.910156 C 1900.339844 1927.039062 1930.359375 1916.148438 1949.949219 1900.230469 C 1959.308594 1893.210938 1965.289062 1888.398438 1967.898438 1885.789062 C 1969.988281 1883.351562 1970.519531 1882.128906 1969.488281 1882.128906 L 1969.480469 1882.128906 C 1969.328125 1882.128906 1969.128906 1882.160156 1968.910156 1882.210938 L 1921.671875 1896.851562 C 1949.839844 1878.980469 1973.980469 1861.839844 1994.089844 1845.441406 C 2004.148438 1837.238281 2013.191406 1829.230469 2021.238281 1821.390625 C 2039.589844 1802.128906 2049.390625 1790.789062 2050.640625 1787.371094 C 2051.519531 1785.269531 2051.339844 1784.210938 2050.089844 1784.210938 C 2049.578125 1784.210938 2048.898438 1784.378906 2048.039062 1784.730469 C 2013.140625 1805.441406 1983.800781 1819.988281 1960.019531 1828.378906 C 2015.839844 1781.519531 2052.289062 1744.25 2069.371094 1716.578125 C 2075.570312 1706.621094 2077.519531 1701.628906 2075.21875 1701.621094 L 2075.210938 1701.621094 C 2074.980469 1701.621094 2074.71875 1701.671875 2074.410156 1701.769531 C 2050.53125 1718.640625 2031.851562 1728.78125 2018.390625 1732.191406 C 2051.421875 1692.621094 2069.070312 1659.609375 2071.339844 1633.160156 L 2071.46875 1623.558594 Z M 1997.539062 1908.699219 C 1971.839844 1920.960938 1945.199219 1931.96875 1917.628906 1941.730469 C 1881.75 1952.78125 1848.558594 1960.699219 1818.019531 1965.46875 C 1811.480469 1966.378906 1803.179688 1966.890625 1793.121094 1967 C 1775.320312 1965.519531 1759.5 1964.78125 1745.679688 1964.761719 C 1737.101562 1964.75 1729.28125 1965.019531 1722.230469 1965.570312 C 1716.03125 1965.730469 1706.789062 1970.378906 1694.511719 1979.53125 C 1693.570312 1979.109375 1693.210938 1978.339844 1693.429688 1977.210938 L 1699.171875 1956.109375 C 1699.210938 1953.78125 1698.828125 1952.621094 1698.03125 1952.621094 C 1697.878906 1952.621094 1697.699219 1952.660156 1697.511719 1952.75 C 1680.941406 1964.839844 1670.609375 1974.050781 1666.519531 1980.371094 C 1657.160156 1992.75 1647.78125 2009.054688 1638.359375 2029.273438 C 1628.871094 2051.308594 1622.941406 2068.367188 1620.570312 2080.445312 C 1618.25 2097.34375 1618.710938 2110.835938 1621.960938 2120.917969 L 1631.140625 2119.414062 C 1638.949219 2110.496094 1648.519531 2102.636719 1659.839844 2095.832031 C 1665.851562 2092.183594 1673.660156 2089.558594 1683.269531 2087.964844 C 1687.621094 2087.5 1691.820312 2087.273438 1695.878906 2087.277344 C 1701.378906 2087.285156 1706.609375 2087.722656 1711.558594 2088.589844 C 1751.121094 2097.988281 1773.941406 2102.8125 1780.039062 2103.070312 C 1781.679688 2103.195312 1783.339844 2103.257812 1785.03125 2103.261719 C 1798.269531 2103.277344 1812.921875 2099.503906 1829 2091.941406 C 1834.199219 2088.234375 1837.601562 2085.128906 1839.171875 2082.621094 C 1840.679688 2078.644531 1839.808594 2076.449219 1836.558594 2076.03125 L 1781.238281 2077.265625 C 1830.070312 2075.148438 1880.488281 2056.609375 1932.5 2021.65625 C 1942.25 2014.320312 1944.878906 2009.367188 1940.378906 2006.789062 L 1866.421875 2022.078125 C 1896.679688 2007.789062 1913.679688 1999.261719 1917.410156 1996.488281 C 1929.789062 1988.699219 1943.429688 1978.710938 1958.308594 1966.5 C 1962.101562 1963.761719 1972.75 1952.019531 1990.28125 1931.28125 C 2001.160156 1917.648438 2003.980469 1910.160156 1998.730469 1908.800781 Z M 1126.550781 1907.601562 L 1125.359375 1907.699219 C 1120.101562 1909.039062 1122.898438 1916.539062 1133.75 1930.191406 C 1151.230469 1950.980469 1161.851562 1962.75 1165.628906 1965.5 C 1180.488281 1977.738281 1194.089844 1987.769531 1206.449219 1995.589844 C 1210.179688 1998.371094 1227.160156 2006.941406 1257.378906 2021.308594 L 1183.460938 2005.832031 C 1178.949219 2008.398438 1181.570312 2013.359375 1191.308594 2020.71875 C 1243.21875 2055.804688 1293.589844 2074.46875 1342.421875 2076.710938 L 1287.101562 2075.335938 C 1283.851562 2075.746094 1282.980469 2077.941406 1284.480469 2081.921875 C 1286.039062 2084.429688 1289.429688 2087.546875 1294.628906 2091.265625 C 1310.679688 2098.871094 1325.328125 2102.679688 1338.570312 2102.699219 C 1340.25 2102.699219 1341.921875 2102.640625 1343.558594 2102.519531 C 1349.648438 2102.277344 1372.488281 2097.507812 1412.070312 2088.210938 C 1417.03125 2087.355469 1422.261719 2086.933594 1427.75 2086.9375 C 1431.808594 2086.945312 1436.019531 2087.183594 1440.371094 2087.660156 C 1449.96875 2089.277344 1457.78125 2091.917969 1463.769531 2095.582031 C 1475.078125 2102.417969 1484.628906 2110.304688 1492.410156 2119.238281 L 1501.578125 2120.765625 C 1504.871094 2110.691406 1505.371094 2097.203125 1503.078125 2080.296875 C 1500.75 2068.214844 1494.859375 2051.140625 1485.421875 2029.078125 C 1476.058594 2008.835938 1466.710938 1992.511719 1457.390625 1980.109375 C 1453.308594 1973.769531 1443 1964.539062 1426.46875 1952.410156 C 1426.28125 1952.320312 1426.101562 1952.269531 1425.941406 1952.269531 C 1425.148438 1952.269531 1424.769531 1953.429688 1424.789062 1955.769531 L 1430.488281 1976.871094 C 1430.699219 1978 1430.339844 1978.78125 1429.398438 1979.191406 C 1417.140625 1970.019531 1407.910156 1965.339844 1401.710938 1965.160156 C 1394.660156 1964.601562 1386.851562 1964.308594 1378.261719 1964.300781 C 1364.441406 1964.28125 1348.628906 1964.980469 1330.820312 1966.410156 C 1320.761719 1966.28125 1312.460938 1965.75 1305.921875 1964.820312 C 1275.398438 1959.96875 1242.21875 1951.980469 1206.378906 1940.828125 C 1178.828125 1931 1152.21875 1919.921875 1126.550781 1907.601562 Z M 1252.148438 2127.941406 L 1252.929688 2132.570312 C 1254.671875 2143.988281 1262.648438 2156.75 1276.890625 2170.855469 C 1285.050781 2177.960938 1301.398438 2187.078125 1325.949219 2198.199219 C 1326.210938 2198.675781 1325.140625 2199.117188 1322.730469 2199.519531 C 1321.480469 2199.839844 1316.550781 2200.289062 1307.949219 2200.863281 C 1303.160156 2201.117188 1298.601562 2201.238281 1294.261719 2201.234375 C 1290.53125 2201.230469 1286.96875 2201.128906 1283.578125 2200.933594 C 1283.539062 2200.929688 1283.488281 2200.929688 1283.449219 2200.929688 C 1282.589844 2200.929688 1282.679688 2201.558594 1283.71875 2202.816406 C 1305.070312 2215.695312 1328.359375 2222.152344 1353.609375 2222.183594 C 1367.421875 2222.199219 1381.808594 2220.296875 1396.78125 2216.476562 C 1386.730469 2223.957031 1373.738281 2231.558594 1357.800781 2239.28125 C 1356.820312 2240.476562 1356.988281 2241.375 1358.308594 2241.972656 C 1360 2242.394531 1361.839844 2242.605469 1363.828125 2242.609375 C 1368.308594 2242.613281 1373.539062 2241.554688 1379.511719 2239.425781 L 1387.5 2235.925781 L 1420.710938 2219.734375 C 1426.269531 2217.371094 1434.710938 2215.359375 1446.039062 2213.699219 C 1448 2213.53125 1449.898438 2213.449219 1451.738281 2213.453125 C 1455.769531 2213.457031 1459.511719 2213.871094 1462.96875 2214.6875 C 1471.328125 2216.398438 1480.761719 2219.808594 1491.238281 2224.917969 L 1500.078125 2226.09375 C 1497.328125 2212.414062 1490.261719 2199.082031 1478.851562 2186.109375 C 1470.140625 2176.59375 1461.71875 2168.964844 1453.589844 2163.226562 C 1452.441406 2161.816406 1446.109375 2158.683594 1434.601562 2153.828125 C 1411.980469 2146.414062 1387.480469 2142.261719 1361.101562 2141.371094 C 1360.550781 2141.402344 1360.039062 2141.535156 1359.558594 2141.773438 L 1385.148438 2156.175781 C 1386.308594 2157.023438 1386.101562 2157.9375 1384.519531 2158.914062 C 1378.789062 2161.929688 1369.460938 2164.355469 1356.550781 2166.191406 C 1352 2166.664062 1347.429688 2166.898438 1342.808594 2166.890625 C 1337.5 2166.886719 1332.140625 2166.5625 1326.730469 2165.917969 C 1307.21875 2163.25 1282.359375 2150.589844 1252.148438 2127.941406 Z M 1871.378906 2128.730469 C 1841.109375 2151.296875 1816.21875 2163.890625 1796.699219 2166.511719 C 1791.289062 2167.140625 1785.929688 2167.453125 1780.621094 2167.445312 C 1776.011719 2167.441406 1771.429688 2167.195312 1766.890625 2166.710938 C 1753.980469 2164.84375 1744.660156 2162.394531 1738.929688 2159.363281 C 1737.359375 2158.378906 1737.148438 2157.46875 1738.308594 2156.625 L 1763.941406 2142.285156 C 1763.460938 2142.046875 1762.941406 2141.910156 1762.390625 2141.878906 C 1736.011719 2142.703125 1711.5 2146.792969 1688.859375 2154.148438 C 1677.351562 2158.976562 1671.011719 2162.09375 1669.851562 2163.5 C 1661.710938 2169.21875 1653.269531 2176.824219 1644.539062 2186.320312 C 1633.089844 2199.265625 1625.980469 2212.574219 1623.199219 2226.25 L 1632.039062 2225.097656 C 1642.539062 2220.011719 1651.980469 2216.625 1660.339844 2214.9375 C 1663.808594 2214.128906 1667.550781 2213.726562 1671.570312 2213.730469 C 1673.421875 2213.730469 1675.320312 2213.820312 1677.269531 2213.992188 C 1688.601562 2215.679688 1697.039062 2217.710938 1702.589844 2220.089844 L 1735.761719 2236.363281 L 1743.738281 2239.886719 C 1749.710938 2242.027344 1754.929688 2243.101562 1759.410156 2243.109375 C 1761.398438 2243.109375 1763.238281 2242.902344 1764.929688 2242.484375 C 1766.261719 2241.890625 1766.429688 2240.996094 1765.449219 2239.796875 C 1749.53125 2232.03125 1736.558594 2224.398438 1726.53125 2216.894531 L 1726.539062 2216.894531 C 1741.5 2220.753906 1755.878906 2222.691406 1769.679688 2222.710938 C 1794.929688 2222.742188 1818.238281 2216.34375 1839.621094 2203.519531 C 1840.671875 2202.265625 1840.761719 2201.636719 1839.898438 2201.632812 L 1839.890625 2201.632812 C 1839.851562 2201.632812 1839.808594 2201.632812 1839.761719 2201.636719 C 1836.371094 2201.824219 1832.808594 2201.914062 1829.089844 2201.910156 C 1824.75 2201.902344 1820.179688 2201.769531 1815.390625 2201.503906 C 1806.800781 2200.90625 1801.871094 2200.445312 1800.628906 2200.125 C 1798.210938 2199.714844 1797.140625 2199.273438 1797.398438 2198.796875 C 1821.980469 2187.734375 1838.359375 2178.660156 1846.539062 2171.574219 C 1860.808594 2157.507812 1868.820312 2144.765625 1870.578125 2133.351562 Z M 1560.609375 1215.359375 L 1559.730469 1219.320312 C 1553.289062 1261.921875 1549.171875 1346.371094 1547.371094 1472.671875 C 1546.410156 1509.171875 1546.089844 1558.691406 1546.378906 1621.25 C 1549.078125 1786.550781 1550.390625 1877.050781 1550.320312 1892.769531 C 1550.820312 1950.980469 1550.851562 2003.28125 1550.410156 2049.65625 C 1550.25 2137.519531 1546.378906 2233.902344 1538.78125 2338.800781 C 1533.949219 2406.675781 1524.109375 2471.789062 1509.25 2534.148438 C 1502.789062 2559.445312 1496.441406 2581.191406 1490.191406 2599.386719 L 1448.628906 2712.984375 C 1499.351562 2651.867188 1537.710938 2564.339844 1563.71875 2450.394531 C 1576.328125 2387.785156 1584.289062 2330.90625 1587.589844 2279.753906 C 1593.289062 2191.582031 1595.96875 2087.84375 1595.628906 1968.550781 C 1595.5 1886.320312 1594.28125 1789.539062 1591.960938 1678.210938 C 1591.609375 1652.679688 1589.808594 1605.589844 1586.570312 1536.949219 C 1581.078125 1420.621094 1577.351562 1352.421875 1575.359375 1332.351562 C 1573.78125 1311.488281 1571.828125 1291.410156 1569.519531 1272.089844 C 1566.429688 1247.710938 1563.460938 1228.800781 1560.609375 1215.359375 Z M 1560.609375 1215.359375 "
        />
    </svg>